<svg xmlns="http://www.w3.org/2000/svg" viewBox="0 0 800 520">
  <defs>
    <linearGradient id="bg" x1="0" y1="0" x2="1" y2="1">
      <stop offset="0" stop-color="#07131f"/>
      <stop offset="0.55" stop-color="#0d3045"/>
      <stop offset="1" stop-color="#0b1c2c"/>
    </linearGradient>
    <radialGradient id="glow" cx="72%" cy="22%" r="65%">
      <stop offset="0" stop-color="#d4a73c" stop-opacity=".55"/>
      <stop offset=".45" stop-color="#d4a73c" stop-opacity=".12"/>
      <stop offset="1" stop-color="#d4a73c" stop-opacity="0"/>
    </radialGradient>
    <linearGradient id="gold" x1="0" y1="0" x2="1" y2="1">
      <stop offset="0" stop-color="#f1d27d"/>
      <stop offset="1" stop-color="#b98422"/>
    </linearGradient>
    <filter id="shadow"><feDropShadow dx="0" dy="14" stdDeviation="18" flood-opacity=".35"/></filter>
  </defs>
  <rect width="800" height="520" rx="34" fill="url(#bg)"/>
  <rect width="800" height="520" rx="34" fill="url(#glow)"/>
  <circle cx="120" cy="90" r="110" fill="#1b7a8d" opacity=".22"/>
  <path d="M0 410 Q180 360 350 420 T800 400 V520 H0Z" fill="#07101a" opacity=".72"/>
  
  <g filter="url(#shadow)">
    <rect x="245" y="155" width="310" height="205" rx="34" fill="#10283a" stroke="#d4a73c" stroke-width="5"/>
    <circle cx="455" cy="257" r="68" fill="#07131f" stroke="url(#gold)" stroke-width="10"/>
    <circle cx="455" cy="257" r="23" fill="#d4a73c"/>
    <rect x="285" y="205" width="95" height="55" rx="14" fill="#07131f" stroke="#8fc8d4" stroke-width="4"/>
    <line x1="306" y1="320" x2="488" y2="320" stroke="#e6c368" stroke-width="7" stroke-linecap="round"/>
    <line x1="520" y1="155" x2="590" y2="78" stroke="#e6c368" stroke-width="7" stroke-linecap="round"/>
    <circle cx="330" cy="285" r="12" fill="#8fc8d4"/>
  </g>
  <path d="M610 185 q55 35 0 70" fill="none" stroke="#e6c368" stroke-width="8" stroke-linecap="round"/>
  <path d="M650 155 q90 65 0 130" fill="none" stroke="#e6c368" stroke-width="6" opacity=".7" stroke-linecap="round"/>

</svg>