<svg xmlns="http://www.w3.org/2000/svg" viewBox="0 0 800 520">
  <defs>
    <linearGradient id="bg" x1="0" y1="0" x2="1" y2="1">
      <stop offset="0" stop-color="#07131f"/>
      <stop offset="0.55" stop-color="#0d3045"/>
      <stop offset="1" stop-color="#0b1c2c"/>
    </linearGradient>
    <radialGradient id="glow" cx="72%" cy="22%" r="65%">
      <stop offset="0" stop-color="#d4a73c" stop-opacity=".55"/>
      <stop offset=".45" stop-color="#d4a73c" stop-opacity=".12"/>
      <stop offset="1" stop-color="#d4a73c" stop-opacity="0"/>
    </radialGradient>
    <linearGradient id="gold" x1="0" y1="0" x2="1" y2="1">
      <stop offset="0" stop-color="#f1d27d"/>
      <stop offset="1" stop-color="#b98422"/>
    </linearGradient>
    <filter id="shadow"><feDropShadow dx="0" dy="14" stdDeviation="18" flood-opacity=".35"/></filter>
  </defs>
  <rect width="800" height="520" rx="34" fill="url(#bg)"/>
  <rect width="800" height="520" rx="34" fill="url(#glow)"/>
  <circle cx="120" cy="90" r="110" fill="#1b7a8d" opacity=".22"/>
  <path d="M0 410 Q180 360 350 420 T800 400 V520 H0Z" fill="#07101a" opacity=".72"/>
  
  <path d="M0 315 Q95 275 190 315 T380 315 T570 315 T800 315 V520 H0Z" fill="#177f9a" opacity=".85"/>
  <path d="M0 360 Q95 320 190 360 T380 360 T570 360 T800 360" fill="none" stroke="#8fd2dc" stroke-width="12" opacity=".75"/>
  <circle cx="400" cy="155" r="34" fill="#e5c26e"/>
  <path d="M400 195 L400 300 M400 220 L320 170 M400 220 L480 170 M400 300 L345 375 M400 300 L455 375"
        fill="none" stroke="#f2eadb" stroke-width="22" stroke-linecap="round" stroke-linejoin="round"/>
  <path d="M290 170 q110 -70 220 0" fill="none" stroke="#d4a73c" stroke-width="8" stroke-linecap="round"/>

</svg>