<svg xmlns="http://www.w3.org/2000/svg" viewBox="0 0 800 520">
  <defs>
    <linearGradient id="bg" x1="0" y1="0" x2="1" y2="1">
      <stop offset="0" stop-color="#07131f"/>
      <stop offset="0.55" stop-color="#0d3045"/>
      <stop offset="1" stop-color="#0b1c2c"/>
    </linearGradient>
    <radialGradient id="glow" cx="72%" cy="22%" r="65%">
      <stop offset="0" stop-color="#d4a73c" stop-opacity=".55"/>
      <stop offset=".45" stop-color="#d4a73c" stop-opacity=".12"/>
      <stop offset="1" stop-color="#d4a73c" stop-opacity="0"/>
    </radialGradient>
    <linearGradient id="gold" x1="0" y1="0" x2="1" y2="1">
      <stop offset="0" stop-color="#f1d27d"/>
      <stop offset="1" stop-color="#b98422"/>
    </linearGradient>
    <filter id="shadow"><feDropShadow dx="0" dy="14" stdDeviation="18" flood-opacity=".35"/></filter>
  </defs>
  <rect width="800" height="520" rx="34" fill="url(#bg)"/>
  <rect width="800" height="520" rx="34" fill="url(#glow)"/>
  <circle cx="120" cy="90" r="110" fill="#1b7a8d" opacity=".22"/>
  <path d="M0 410 Q180 360 350 420 T800 400 V520 H0Z" fill="#07101a" opacity=".72"/>
  
  <circle cx="390" cy="270" r="150" fill="#f2eadb" stroke="#d4a73c" stroke-width="10" filter="url(#shadow)"/>
  <circle cx="390" cy="270" r="120" fill="#1c6f78"/>
  <circle cx="390" cy="270" r="88" fill="#bd3a43"/>
  <circle cx="390" cy="270" r="55" fill="#f2eadb"/>
  <circle cx="390" cy="270" r="22" fill="#d4a73c"/>
  <path d="M610 110 L470 230" stroke="#f2eadb" stroke-width="10" stroke-linecap="round"/>
  <path d="M605 105 l54 -18 -18 54z" fill="#d4a73c"/>
  <path d="M470 230 l-12 -34 -24 30z" fill="#bd3a43"/>

</svg>