<svg xmlns="http://www.w3.org/2000/svg" viewBox="0 0 800 520">
  <defs>
    <linearGradient id="bg" x1="0" y1="0" x2="1" y2="1">
      <stop offset="0" stop-color="#07131f"/>
      <stop offset="0.55" stop-color="#0d3045"/>
      <stop offset="1" stop-color="#0b1c2c"/>
    </linearGradient>
    <radialGradient id="glow" cx="72%" cy="22%" r="65%">
      <stop offset="0" stop-color="#d4a73c" stop-opacity=".55"/>
      <stop offset=".45" stop-color="#d4a73c" stop-opacity=".12"/>
      <stop offset="1" stop-color="#d4a73c" stop-opacity="0"/>
    </radialGradient>
    <linearGradient id="gold" x1="0" y1="0" x2="1" y2="1">
      <stop offset="0" stop-color="#f1d27d"/>
      <stop offset="1" stop-color="#b98422"/>
    </linearGradient>
    <filter id="shadow"><feDropShadow dx="0" dy="14" stdDeviation="18" flood-opacity=".35"/></filter>
  </defs>
  <rect width="800" height="520" rx="34" fill="url(#bg)"/>
  <rect width="800" height="520" rx="34" fill="url(#glow)"/>
  <circle cx="120" cy="90" r="110" fill="#1b7a8d" opacity=".22"/>
  <path d="M0 410 Q180 360 350 420 T800 400 V520 H0Z" fill="#07101a" opacity=".72"/>
  
  <path d="M0 280 Q105 240 210 280 T420 280 T630 280 T840 280 V520 H0Z" fill="#117b99" opacity=".88"/>
  <path d="M0 335 Q105 295 210 335 T420 335 T630 335 T840 335" fill="none" stroke="#9adce5" stroke-width="12" opacity=".8"/>
  <circle cx="395" cy="145" r="34" fill="#e5c26e"/>
  <path d="M395 185 L395 290 M395 215 L305 250 M395 215 L485 250"
        fill="none" stroke="#f2eadb" stroke-width="22" stroke-linecap="round"/>
  <path d="M305 250 l-38 -20 M485 250 l38 -20" stroke="#d4a73c" stroke-width="12" stroke-linecap="round"/>
  <circle cx="267" cy="230" r="18" fill="#d4a73c"/><circle cx="523" cy="230" r="18" fill="#d4a73c"/>

</svg>